# xmcd
#
# Track frame offsets:
#	150
#	19387
#	31162
#	44432
#	56880
#	77462
#	89942
#	102000
#	116172
#	129822
#	141617
#	154745
#	170842
#	185322
#	202217
#	214865
#	227027
#	240165
#	252307
#	274620
#
# Disc length: 3871 seconds
#
# Revision: 6
# Processed by: cddbd v1.5.1PL0 Copyright (c) Steve Scherf et al.
# Submitted via: dBpowerAMP V4.0
#
DISCID=220f1d14
DTITLE=Various Artist - Blues Brother Soul Sister Classics Disc 2
DYEAR=1999
DGENRE=R&B
TTITLE0=Abraham, Martin and John - Marvin Gaye
TTITLE1=(Take A Little) Piece Of My Heart - Erma Franklin
TTITLE2=When A Man Loves A Woman - Percy Sledge
TTITLE3=Born Under A Bad Sign - Albert King
TTITLE4=Midnight Train To Georgia - Gladys Knight and The Pips
TTITLE5=(Sitting On The) Dock Of The Bay - Otis Reading
TTITLE6=Oh No Not My Baby - Maxine Brown
TTITLE7=Tell It Like It Is - Aaron Neville
TTITLE8=The Tracks Of My Tears - Smokey Robinson and The Miracles
TTITLE9=I'd Rather Go Blind - Etta James
TTITLE10=Stand By Me - Ben E King
TTITLE11=Misty Blue - Dorothy Moore
TTITLE12=I'm Still In Love With You - Al Green
TTITLE13=Need Your Love So Bad - Fleetwood Mac
TTITLE14=Mad About The Boy - Dinah Washington
TTITLE15=Private Number - Judy Clay and William Bell
TTITLE16=Feeling Good - Nina Simone
TTITLE17=I'm Gonna Tear Your Playhouse Down - Ann Peebles
TTITLE18=The Thrill Is Gone - B. B. King
TTITLE19=Stay With Me - Lorraine Ellison
EXTD=
EXTT0=
EXTT1=
EXTT2=
EXTT3=
EXTT4=
EXTT5=
EXTT6=
EXTT7=
EXTT8=
EXTT9=
EXTT10=
EXTT11=
EXTT12=
EXTT13=
EXTT14=
EXTT15=
EXTT16=
EXTT17=
EXTT18=
EXTT19=
PLAYORDER=
